<?xml version="1.0" encoding="utf-8"?>
<svg viewBox="0 0 500 500" xmlns="http://www.w3.org/2000/svg">
  <g id="icomoon-ignore" transform="matrix(1, 0, 0, 1, -261.991455, -261.991974)"/>
  <path fill="#b2a16d" d="M -0.293 -0.292 L 21.905 -0.292 L 21.905 500.3 L -0.293 500.3 L -0.293 -0.292 Z"/>
  <path fill="#b2a16d" d="M 476.982 331.212 L 499.182 331.212 L 499.182 500.3 L 476.982 500.3 L 476.982 331.212 Z"/>
  <path fill="#b2a16d" d="M 476.967 -0.292 L 499.182 -0.292 L 499.182 331.594 L 476.967 331.594 L 476.967 -0.292 Z"/>
  <path fill="#b2a16d" d="M 499.174 -0.3 L 499.174 21.95 L -0.301 21.95 L -0.301 -0.3 L 499.174 -0.3 Z"/>
  <path fill="#b2a16d" d="M 499.175 478.045 L 499.175 500.295 L -0.3 500.295 L -0.3 478.045 L 499.175 478.045 Z"/>
  <path d="M 48.659 303.286 C 52.572 303.286 58.216 303.133 65.589 302.826 C 72.962 302.519 77.839 302.366 80.219 302.366 L 83.329 302.366 C 93.382 302.366 100.866 304.419 105.779 308.526 C 110.692 312.633 113.149 318.026 113.149 324.706 C 113.149 334.226 106.932 340.829 94.499 344.516 L 94.499 344.866 C 101.712 345.939 107.412 348.759 111.599 353.326 C 115.786 357.893 117.879 363.363 117.879 369.736 C 117.879 378.263 114.979 384.906 109.179 389.666 C 103.386 394.426 94.882 396.806 83.669 396.806 C 80.596 396.806 75.626 396.556 68.759 396.056 C 61.886 395.556 56.412 395.306 52.339 395.306 C 51.879 395.306 51.152 395.326 50.159 395.366 C 49.159 395.406 48.429 395.426 47.969 395.426 C 47.509 394.039 47.509 392.656 47.969 391.276 L 57.529 390.006 C 57.836 387.093 57.989 382.603 57.989 376.536 L 57.989 308.696 L 48.659 307.546 C 48.352 306.393 48.352 304.973 48.659 303.286 M 79.519 348.546 L 70.309 348.546 L 70.309 390.236 C 74.222 390.929 77.332 391.353 79.639 391.506 C 88.932 391.506 95.342 389.759 98.869 386.266 C 102.402 382.773 104.169 377.303 104.169 369.856 C 104.169 363.863 101.999 358.813 97.659 354.706 C 93.326 350.599 87.279 348.546 79.519 348.546 M 80.329 307.196 C 76.489 307.196 73.302 307.466 70.769 308.006 C 70.462 310.926 70.309 315.726 70.309 322.406 L 70.309 342.786 L 79.289 342.786 C 86.429 342.786 91.632 341.329 94.899 338.416 C 98.159 335.496 99.789 331.156 99.789 325.396 C 99.789 319.563 98.006 315.073 94.439 311.926 C 90.866 308.773 86.162 307.196 80.329 307.196 ZM 176.608 362.826 L 140.448 362.826 C 139.755 382.406 145.628 392.196 158.068 392.196 C 163.368 392.196 168.781 389.856 174.308 385.176 C 175.461 385.863 176.345 387.053 176.958 388.746 C 171.658 394.653 164.938 397.606 156.798 397.606 C 138.065 397.606 128.698 386.589 128.698 364.556 C 128.698 354.116 131.461 345.996 136.988 340.196 C 142.521 334.403 148.971 331.506 156.338 331.506 C 164.405 331.506 170.201 334.306 173.728 339.906 C 177.261 345.513 179.028 352.809 179.028 361.796 C 178.261 362.409 177.455 362.753 176.608 362.826 M 156.108 336.106 C 152.115 336.106 148.718 338.179 145.918 342.326 C 143.118 346.473 141.411 351.773 140.798 358.226 L 155.078 358.226 C 160.758 358.226 164.825 357.879 167.278 357.186 C 167.278 350.886 166.321 345.799 164.408 341.926 C 162.488 338.046 159.721 336.106 156.108 336.106 ZM 235.352 354.186 C 235.352 348.279 234.562 344.136 232.982 341.756 C 231.409 339.376 228.782 338.186 225.102 338.186 C 219.415 338.186 213.695 342.446 207.942 350.966 L 207.942 389.436 L 217.262 391.156 C 217.569 392.389 217.569 393.926 217.262 395.766 C 212.429 395.539 207.479 395.426 202.412 395.426 C 198.879 395.426 193.889 395.503 187.442 395.656 C 186.975 394.196 186.975 392.696 187.442 391.156 L 196.532 389.896 C 196.839 385.669 196.992 380.793 196.992 375.266 L 196.992 343.706 C 196.992 342.173 196.879 340.753 196.652 339.446 L 187.552 338.296 C 187.245 337.143 187.245 335.683 187.552 333.916 C 192.852 333.536 199.455 332.733 207.362 331.506 C 208.055 332.273 208.439 333.039 208.512 333.806 C 208.132 335.799 207.942 339.216 207.942 344.056 C 214.002 335.689 220.835 331.506 228.442 331.506 C 240.342 331.506 246.292 337.149 246.292 348.436 L 246.292 389.436 L 255.622 391.156 C 255.929 392.389 255.929 393.926 255.622 395.766 C 250.782 395.539 245.829 395.426 240.762 395.426 C 237.229 395.426 232.239 395.503 225.792 395.656 C 225.332 394.196 225.332 392.696 225.792 391.156 L 234.892 389.896 C 235.199 385.669 235.352 380.793 235.352 375.266 L 235.352 354.186 ZM 308.715 354.186 C 308.715 348.279 307.925 344.136 306.345 341.756 C 304.772 339.376 302.145 338.186 298.465 338.186 C 292.778 338.186 287.058 342.446 281.305 350.966 L 281.305 389.436 L 290.625 391.156 C 290.932 392.389 290.932 393.926 290.625 395.766 C 285.792 395.539 280.842 395.426 275.775 395.426 C 272.242 395.426 267.252 395.503 260.805 395.656 C 260.338 394.196 260.338 392.696 260.805 391.156 L 269.895 389.896 C 270.202 385.669 270.355 380.793 270.355 375.266 L 270.355 343.706 C 270.355 342.173 270.242 340.753 270.015 339.446 L 260.915 338.296 C 260.608 337.143 260.608 335.683 260.915 333.916 C 266.215 333.536 272.818 332.733 280.725 331.506 C 281.418 332.273 281.802 333.039 281.875 333.806 C 281.495 335.799 281.305 339.216 281.305 344.056 C 287.365 335.689 294.198 331.506 301.805 331.506 C 313.705 331.506 319.655 337.149 319.655 348.436 L 319.655 389.436 L 328.985 391.156 C 329.292 392.389 329.292 393.926 328.985 395.766 C 324.145 395.539 319.192 395.426 314.125 395.426 C 310.592 395.426 305.602 395.503 299.155 395.656 C 298.695 394.196 298.695 392.696 299.155 391.156 L 308.255 389.896 C 308.562 385.669 308.715 380.793 308.715 375.266 L 308.715 354.186 ZM 383.798 362.826 L 347.638 362.826 C 346.944 382.406 352.818 392.196 365.258 392.196 C 370.558 392.196 375.971 389.856 381.498 385.176 C 382.651 385.863 383.534 387.053 384.148 388.746 C 378.848 394.653 372.128 397.606 363.988 397.606 C 345.254 397.606 335.888 386.589 335.888 364.556 C 335.888 354.116 338.651 345.996 344.178 340.196 C 349.711 334.403 356.161 331.506 363.528 331.506 C 371.594 331.506 377.391 334.306 380.918 339.906 C 384.451 345.513 386.218 352.809 386.218 361.796 C 385.451 362.409 384.645 362.753 383.798 362.826 M 363.298 336.106 C 359.305 336.106 355.908 338.179 353.108 342.326 C 350.308 346.473 348.601 351.773 347.988 358.226 L 362.268 358.226 C 367.948 358.226 372.014 357.879 374.468 357.186 C 374.468 350.886 373.511 345.799 371.598 341.926 C 369.678 338.046 366.911 336.106 363.298 336.106 ZM 415.702 333.806 L 415.472 345.666 C 417.392 342.133 420.062 338.889 423.482 335.936 C 426.895 332.983 430.138 331.506 433.212 331.506 C 435.592 331.506 437.702 331.773 439.542 332.306 C 440.155 333.306 440.462 334.613 440.462 336.226 C 440.462 338.759 439.925 341.293 438.852 343.826 C 436.085 343.059 433.435 342.676 430.902 342.676 C 424.608 342.676 419.428 345.746 415.362 351.886 L 415.132 372.046 L 415.132 389.436 L 427.912 391.156 C 428.218 392.389 428.218 393.926 427.912 395.766 C 423.072 395.539 417.542 395.426 411.322 395.426 C 406.642 395.426 401.078 395.503 394.632 395.656 C 394.165 394.196 394.165 392.696 394.632 391.156 L 403.722 389.896 C 404.028 385.669 404.182 380.793 404.182 375.266 L 404.182 343.706 C 404.182 342.173 404.068 340.753 403.842 339.446 L 394.742 338.296 C 394.435 337.143 394.435 335.683 394.742 333.916 C 400.042 333.536 406.645 332.733 414.552 331.506 C 415.245 332.273 415.628 333.039 415.702 333.806 Z" transform="matrix(1.039612054824829, 0, 0, 1.0419420003890991, -1.537384033203125, -10.632012367248535)" style="fill: rgb(255, 255, 255); white-space: pre;"/>
  <path d="M 75.033 122.081 L 75.033 182.541 C 75.033 193.214 72.923 201.774 68.703 208.221 C 64.483 214.674 59.223 217.901 52.923 217.901 C 47.55 217.901 43.653 216.884 41.233 214.851 C 38.813 212.811 37.566 209.374 37.493 204.541 C 38.033 202.468 40.106 201.431 43.713 201.431 C 45.4 201.431 47.28 201.661 49.353 202.121 C 49.74 206.574 50.22 209.531 50.793 210.991 C 51.373 212.451 52.43 213.181 53.963 213.181 C 57.343 213.181 59.646 210.971 60.873 206.551 C 62.1 202.138 62.713 195.211 62.713 185.771 L 62.713 108.371 L 52.233 107.221 C 51.926 106.068 51.926 104.648 52.233 102.961 C 56.46 103.188 61.22 103.301 66.513 103.301 C 73.346 103.301 79.526 103.188 85.053 102.961 C 85.52 104.341 85.52 105.724 85.053 107.111 L 75.503 108.601 C 75.19 111.521 75.033 116.014 75.033 122.081 ZM 92.081 164.341 C 92.081 159.734 92.754 155.418 94.101 151.391 C 95.441 147.358 97.377 143.844 99.911 140.851 C 102.444 137.858 105.497 135.498 109.071 133.771 C 112.644 132.044 116.657 131.181 121.111 131.181 C 125.484 131.181 129.474 132.044 133.081 133.771 C 136.694 135.498 139.784 137.858 142.351 140.851 C 144.924 143.844 146.904 147.358 148.291 151.391 C 149.671 155.418 150.361 159.734 150.361 164.341 C 150.361 169.108 149.651 173.484 148.231 177.471 C 146.811 181.464 144.814 184.941 142.241 187.901 C 139.667 190.854 136.577 193.158 132.971 194.811 C 129.357 196.458 125.404 197.281 121.111 197.281 C 116.577 197.281 112.524 196.474 108.951 194.861 C 105.384 193.254 102.354 190.991 99.861 188.071 C 97.361 185.151 95.441 181.678 94.101 177.651 C 92.754 173.618 92.081 169.181 92.081 164.341 M 108.901 143.151 C 105.594 147.838 103.941 154.901 103.941 164.341 C 103.941 169.028 104.384 173.138 105.271 176.671 C 106.151 180.204 107.361 183.141 108.901 185.481 C 110.434 187.821 112.237 189.568 114.311 190.721 C 116.384 191.874 118.651 192.451 121.111 192.451 C 123.491 192.451 125.754 191.874 127.901 190.721 C 130.047 189.568 131.891 187.821 133.431 185.481 C 134.964 183.141 136.191 180.204 137.111 176.671 C 138.037 173.138 138.501 169.028 138.501 164.341 C 138.501 159.661 138.037 155.534 137.111 151.961 C 136.191 148.394 134.944 145.441 133.371 143.101 C 131.797 140.754 129.954 138.988 127.841 137.801 C 125.734 136.608 123.491 136.011 121.111 136.011 C 116.344 136.011 112.274 138.391 108.901 143.151 ZM 179.841 133.481 L 179.611 145.341 C 181.531 141.808 184.201 138.564 187.621 135.611 C 191.034 132.658 194.278 131.181 197.351 131.181 C 199.731 131.181 201.841 131.448 203.681 131.981 C 204.294 132.981 204.601 134.288 204.601 135.901 C 204.601 138.434 204.064 140.968 202.991 143.501 C 200.224 142.734 197.574 142.351 195.041 142.351 C 188.748 142.351 183.568 145.421 179.501 151.561 L 179.271 171.721 L 179.271 189.111 L 192.051 190.831 C 192.358 192.064 192.358 193.601 192.051 195.441 C 187.211 195.214 181.681 195.101 175.461 195.101 C 170.781 195.101 165.218 195.178 158.771 195.331 C 158.304 193.871 158.304 192.371 158.771 190.831 L 167.861 189.571 C 168.168 185.344 168.321 180.468 168.321 174.941 L 168.321 143.381 C 168.321 141.848 168.208 140.428 167.981 139.121 L 158.881 137.971 C 158.574 136.818 158.574 135.358 158.881 133.591 C 164.181 133.211 170.784 132.408 178.691 131.181 C 179.384 131.948 179.768 132.714 179.841 133.481 ZM 265.299 178.631 C 265.299 183.771 265.412 187.378 265.639 189.451 L 274.739 190.601 C 274.972 191.834 274.972 193.294 274.739 194.981 C 269.139 195.214 263.305 195.751 257.239 196.591 C 256.699 196.058 256.315 195.328 256.089 194.401 L 255.509 187.031 C 252.822 190.184 249.482 192.701 245.489 194.581 C 241.495 196.461 237.312 197.401 232.939 197.401 C 226.259 197.401 220.729 194.618 216.349 189.051 C 211.975 183.484 209.789 176.054 209.789 166.761 C 209.789 156.014 212.649 147.398 218.369 140.911 C 224.089 134.424 230.942 131.181 238.929 131.181 C 245.222 131.181 250.365 132.678 254.359 135.671 L 254.359 120.231 C 254.359 115.164 254.242 111.404 254.009 108.951 L 244.909 107.801 C 244.602 106.648 244.602 105.188 244.909 103.421 C 250.209 103.034 256.812 102.228 264.719 101.001 C 265.412 101.768 265.799 102.534 265.879 103.301 C 265.492 105.301 265.299 111.521 265.299 121.961 L 265.299 178.631 M 237.999 137.391 C 233.012 137.391 229.022 140.021 226.029 145.281 C 223.029 150.541 221.529 157.818 221.529 167.111 C 221.529 174.711 222.932 180.508 225.739 184.501 C 228.539 188.494 232.242 190.491 236.849 190.491 C 239.615 190.491 242.649 189.628 245.949 187.901 C 249.249 186.174 252.052 183.774 254.359 180.701 L 254.359 143.841 C 250.592 139.541 245.139 137.391 237.999 137.391 ZM 292.249 179.661 C 292.249 183.654 292.979 186.478 294.439 188.131 C 295.893 189.778 298.196 190.601 301.349 190.601 C 303.65 190.601 306.203 189.891 309.009 188.471 C 311.81 187.051 314.4 184.998 316.779 182.311 L 316.779 164.341 C 308.873 164.808 302.806 166.211 298.579 168.551 C 294.359 170.891 292.249 174.594 292.249 179.661 M 316.779 160.201 L 316.779 154.321 C 316.779 147.801 316.029 143.061 314.529 140.101 C 313.036 137.148 310.56 135.671 307.099 135.671 C 303.573 135.671 300.733 136.801 298.579 139.061 C 296.433 141.328 294.976 145.188 294.21 150.641 C 291.749 151.181 289.943 151.451 288.789 151.451 C 285.796 151.451 284.033 150.374 283.499 148.221 C 283.499 143.001 285.763 138.854 290.289 135.781 C 294.823 132.714 300.466 131.181 307.219 131.181 C 314.666 131.181 319.946 132.698 323.06 135.731 C 326.166 138.758 327.719 144.188 327.719 152.021 L 327.719 184.501 C 327.719 186.421 327.836 188.071 328.069 189.451 L 337.159 190.601 C 337.466 191.754 337.466 193.214 337.159 194.981 C 331.713 195.214 325.916 195.751 319.77 196.591 C 319.156 195.978 318.773 195.211 318.62 194.291 L 318.049 186.341 C 311.676 193.634 304.573 197.281 296.74 197.281 C 291.9 197.281 288.12 195.901 285.4 193.141 C 282.673 190.374 281.309 186.651 281.309 181.971 C 281.309 174.904 284.513 169.568 290.919 165.961 C 297.333 162.348 305.953 160.428 316.779 160.201 ZM 389.57 153.861 C 389.57 147.954 388.78 143.811 387.2 141.431 C 385.627 139.051 383 137.861 379.32 137.861 C 373.633 137.861 367.913 142.121 362.16 150.641 L 362.16 189.111 L 371.48 190.831 C 371.787 192.064 371.787 193.601 371.48 195.441 C 366.647 195.214 361.697 195.101 356.63 195.101 C 353.097 195.101 348.107 195.178 341.66 195.331 C 341.193 193.871 341.193 192.371 341.66 190.831 L 350.75 189.571 C 351.057 185.344 351.21 180.468 351.21 174.941 L 351.21 143.381 C 351.21 141.848 351.097 140.428 350.87 139.121 L 341.77 137.971 C 341.463 136.818 341.463 135.358 341.77 133.591 C 347.07 133.211 353.673 132.408 361.58 131.181 C 362.273 131.948 362.657 132.714 362.73 133.481 C 362.35 135.474 362.16 138.891 362.16 143.731 C 368.22 135.364 375.053 131.181 382.66 131.181 C 394.56 131.181 400.51 136.824 400.51 148.111 L 400.51 189.111 L 409.84 190.831 C 410.147 192.064 410.147 193.601 409.84 195.441 C 405 195.214 400.047 195.101 394.98 195.101 C 391.447 195.101 386.457 195.178 380.01 195.331 C 379.55 193.871 379.55 192.371 380.01 190.831 L 389.11 189.571 C 389.417 185.344 389.57 180.468 389.57 174.941 L 389.57 153.861 Z" transform="matrix(1.039612054824829, 0, 0, 1.0419420003890991, 16.590858459472656, -10.632012367248535)" style="fill: rgb(255, 255, 255); white-space: pre;"/>
</svg>