<?xml version="1.0" encoding="utf-8"?>
<svg viewBox="0 0 500 500" xmlns="http://www.w3.org/2000/svg">
  <defs>
    <style id="bx-google-fonts">@import url(https://fonts.googleapis.com/css?family=Roboto:100,300,500,700,900,100italic,300italic,400,400italic,500italic,700italic,900italic);</style>
  </defs>
  <g id="icomoon-ignore" transform="matrix(1, 0, 0, 1, -261.991455, -261.991974)"/>
  <path fill="#b2a16d" d="M 9.782 9.783 L 31.135 9.783 L 31.135 490.225 L 9.782 490.225 L 9.782 9.783 Z"/>
  <path fill="#b2a16d" d="M 468.872 327.943 L 490.226 327.943 L 490.226 490.225 L 468.872 490.225 L 468.872 327.943 Z"/>
  <path fill="#b2a16d" d="M 468.857 9.783 L 490.226 9.783 L 490.226 328.31 L 468.857 328.31 L 468.857 9.783 Z"/>
  <path fill="#b2a16d" d="M 490.218 9.775 L 490.218 31.129 L 9.774 31.129 L 9.774 9.775 L 490.218 9.775 Z"/>
  <path fill="#b2a16d" d="M 490.219 468.866 L 490.219 490.22 L 9.775 490.22 L 9.775 468.866 L 490.219 468.866 Z"/>
  <text x="74.643" y="388.911" style="fill: rgb(255, 255, 255); font-size: 117.3px; white-space: pre;">Benner</text>
  <text x="70.355" y="198.178" style="fill: rgb(255, 255, 255); font-size: 117.3px; white-space: pre;">Jordan</text>
</svg>